<svg width="24.000000" height="18.676270" viewBox="0 0 24 18.6763" fill="none" xmlns="http://www.w3.org/2000/svg" xmlns:xlink="http://www.w3.org/1999/xlink">
	<path id="Vector" d="M15.85 8.79L10.61 5.3C10.51 5.23 10.4 5.19 10.28 5.19C10.16 5.18 10.04 5.21 9.94 5.27C9.84 5.32 9.75 5.41 9.69 5.51C9.63 5.61 9.6 5.72 9.6 5.84L9.6 12.82C9.6 12.94 9.63 13.06 9.69 13.16C9.75 13.26 9.84 13.35 9.94 13.4C10.05 13.46 10.16 13.48 10.28 13.48C10.4 13.47 10.51 13.44 10.61 13.37L15.85 9.88C15.94 9.82 16.01 9.74 16.06 9.64C16.11 9.55 16.14 9.44 16.14 9.33C16.14 9.23 16.11 9.12 16.06 9.02C16.01 8.93 15.94 8.85 15.85 8.79ZM10.9 11.6L10.9 7.06L14.31 9.33L10.9 11.6ZM23.38 3.04C23.29 2.67 23.11 2.33 22.86 2.05C22.6 1.76 22.29 1.54 21.93 1.4C18.21 -0.03 12.25 0 12 0C11.74 0 5.78 -0.03 2.06 1.4C1.7 1.54 1.39 1.76 1.13 2.05C0.88 2.33 0.7 2.67 0.61 3.04C0.32 4.11 0 6.07 0 9.33C0 12.6 0.32 14.56 0.61 15.63C0.7 16 0.88 16.34 1.13 16.62C1.39 16.91 1.7 17.13 2.06 17.26C5.78 18.69 11.74 18.67 12 18.67L12.07 18.67C12.82 18.67 18.39 18.63 21.93 17.26C22.29 17.13 22.6 16.91 22.86 16.62C23.11 16.34 23.29 16 23.38 15.63C23.67 14.56 24 12.6 24 9.33C24 6.07 23.67 4.11 23.38 3.04ZM22.12 15.3C22.08 15.47 21.99 15.62 21.88 15.75C21.77 15.88 21.62 15.98 21.46 16.04C17.97 17.38 12.06 17.36 12 17.36C11.93 17.36 6.02 17.38 2.53 16.04C2.37 15.98 2.22 15.88 2.11 15.75C2 15.62 1.91 15.47 1.87 15.3C1.61 14.3 1.3 12.45 1.3 9.33C1.3 6.21 1.61 4.37 1.87 3.37C1.91 3.2 2 3.05 2.11 2.92C2.22 2.79 2.37 2.69 2.53 2.62C6.02 1.28 11.93 1.3 12 1.3C12.06 1.3 17.97 1.28 21.46 2.62C21.62 2.69 21.77 2.79 21.88 2.92C21.99 3.05 22.08 3.2 22.12 3.37C22.38 4.37 22.69 6.21 22.69 9.33C22.69 12.45 22.38 14.3 22.12 15.3Z" fill="#666666" fill-opacity="1.000000" fill-rule="nonzero"/>
</svg>
