<svg width="26.962967" height="17.000000" viewBox="0 0 26.963 17" fill="none" xmlns="http://www.w3.org/2000/svg" xmlns:xlink="http://www.w3.org/1999/xlink">
	<path id="Vector" d="M0 2.33C0 1.48 0.51 1.02 1.54 0.95L5.51 0.98C5.78 0.98 5.95 1.1 6.04 1.35C6.45 2.61 6.91 3.7 7.42 4.61C7.92 5.52 8.58 6.58 9.4 7.77C9.47 7.92 9.59 7.99 9.75 7.99C9.87 7.99 9.97 7.93 10.04 7.82L10.12 7.54L10.15 3.19C10.15 2.89 10.07 2.69 9.92 2.59C9.77 2.48 9.49 2.41 9.08 2.36C8.76 2.31 8.6 2.12 8.6 1.81C8.6 1.74 8.61 1.69 8.63 1.65C9 0.57 10.07 0.02 11.82 0.02L13.32 0C13.99 0 14.55 0.15 15 0.47C15.44 0.79 15.66 1.29 15.66 1.98L15.66 7.69C15.79 7.77 15.9 7.82 16.01 7.82C16.27 7.82 16.5 7.67 16.7 7.36C18.65 4.78 19.71 3.05 19.87 2.18C19.87 2.17 19.89 2.12 19.92 2.06C20.05 1.81 20.25 1.59 20.54 1.4C20.82 1.22 21.07 1.09 21.28 1.03C21.35 0.99 21.43 0.98 21.52 0.98L25.65 0.98L25.92 1C26.27 1 26.55 1.16 26.74 1.48C26.82 1.58 26.86 1.69 26.89 1.81C26.92 1.92 26.94 2.04 26.94 2.16C26.95 2.28 26.96 2.34 26.96 2.36L26.96 2.54C26.83 3.22 26.52 3.96 26.01 4.74C25.51 5.52 24.86 6.36 24.08 7.26C23.3 8.17 22.81 8.76 22.62 9.05C22.46 9.25 22.38 9.43 22.38 9.6C22.38 9.74 22.45 9.89 22.59 10.05L26.48 14.68C26.69 14.95 26.8 15.24 26.8 15.56C26.8 15.95 26.64 16.27 26.32 16.52C26 16.77 25.62 16.91 25.17 16.94L24.72 16.97L20.67 16.97C20.65 16.97 20.62 16.97 20.56 16.98C20.51 16.99 20.47 17 20.46 17C20.07 17 19.7 16.84 19.36 16.52C19.24 16.38 18.41 15.39 16.86 13.55C16.77 13.43 16.65 13.32 16.49 13.22C16.42 13.49 16.32 13.88 16.21 14.38C16.09 14.88 16.01 15.24 15.95 15.46L15.87 15.89C15.7 16.48 15.32 16.83 14.76 16.94L14.38 16.97L11.77 16.97C10.3 16.97 8.83 16.33 7.36 15.06C5.9 13.78 4.58 12.14 3.41 10.12C2.23 8.1 1.14 5.75 0.13 3.06C0.04 2.85 0 2.6 0 2.33ZM16.01 8.85C15.63 8.85 15.3 8.75 15 8.56C14.69 8.37 14.54 8.1 14.54 7.77L14.54 1.98C14.54 1.65 14.45 1.41 14.28 1.27C14.1 1.12 13.79 1.05 13.34 1.05L11.82 1.1C11.06 1.1 10.48 1.23 10.09 1.48C10.87 1.83 11.27 2.4 11.27 3.19L11.27 7.61C11.23 8.03 11.05 8.38 10.73 8.66C10.41 8.94 10.06 9.07 9.67 9.07C9.13 9.07 8.73 8.83 8.44 8.34C7.06 6.37 6.03 4.49 5.35 2.71L5.11 2.06L1.57 2.03C1.34 2.03 1.21 2.04 1.18 2.07C1.15 2.09 1.14 2.17 1.14 2.28C1.14 2.43 1.16 2.59 1.19 2.76L1.75 4.17C3.25 7.81 4.87 10.67 6.62 12.77C8.37 14.87 10.08 15.91 11.77 15.91L14.44 15.91C14.54 15.91 14.62 15.88 14.68 15.83C14.73 15.77 14.77 15.65 14.81 15.49L14.86 15.23L15.37 13.02C15.51 12.72 15.63 12.52 15.74 12.42C15.94 12.23 16.17 12.14 16.43 12.14C16.86 12.14 17.3 12.38 17.74 12.87L20 15.59C20.15 15.8 20.3 15.91 20.46 15.91L24.85 15.91C25.39 15.91 25.65 15.79 25.65 15.54C25.65 15.45 25.63 15.37 25.57 15.29L21.71 10.73C21.41 10.38 21.26 10 21.26 9.6C21.26 9.2 21.4 8.81 21.68 8.44C21.91 8.11 22.36 7.55 23.03 6.77C23.69 5.99 24.28 5.26 24.77 4.58C25.27 3.91 25.6 3.29 25.76 2.74L25.84 2.41C25.82 2.38 25.81 2.32 25.81 2.25C25.81 2.17 25.8 2.11 25.79 2.06L21.6 2.06C21.34 2.16 21.12 2.31 20.96 2.51L20.8 2.99C20.36 4.14 19.2 5.93 17.31 8.34C16.94 8.68 16.5 8.85 16.01 8.85Z" fill="#666666" fill-opacity="1.000000" fill-rule="nonzero"/>
</svg>
