<svg width="27.000000" height="34.000000" viewBox="0 0 27 34" fill="none" xmlns="http://www.w3.org/2000/svg" xmlns:xlink="http://www.w3.org/1999/xlink">
		<clipPath id="clip30_934">
			<rect id="Лого_html 1" width="27.000000" height="34.000000" fill="white" fill-opacity="0"/>
		</clipPath>
		<rect id="Лого_html 1" width="27.000000" height="34.000000" fill="#FFFFFF" fill-opacity="0"/>
	<g clip-path="url(#clip30_934)">
		<path id="html academy " d="M13.64 0.01L13.5 0L0 1.4L0 26.01L13.5 34L27 26.01L27 1.4L13.64 0.01ZM25.23 25.01L13.5 31.95L1.76 25.01L1.76 14.92L13.45 21.84L13.47 23.09L5.45 18.35L5.44 19.58L13.48 24.38L13.5 25.67L5.46 20.91L5.45 22.14L13.5 26.95L21.62 22.11L21.62 20.89L21.62 16.9L25.24 14.75L25.23 25.01ZM25.23 13.45L22.01 15.33L20.53 16.2L13.46 12.02L13.45 13.24L19.49 16.81L19.44 16.84L19.31 16.92L18.45 17.41L13.46 14.46L13.45 15.69L17.39 18.02L16.45 18.63L16.43 18.64L13.46 16.9L13.45 18.12L15.4 19.26L13.41 20.44L1.79 13.57L13.43 6.61L25.23 13.45ZM25.23 12.22L13.44 5.31L1.76 12.21L1.76 2.98L13.5 1.76L25.23 2.98L25.23 12.22Z" fill="#666666" fill-opacity="1.000000" fill-rule="nonzero"/>
	</g>
</svg>
