<svg width="19.696152" height="17.070068" viewBox="0 0 19.6962 17.0701" fill="none" xmlns="http://www.w3.org/2000/svg" xmlns:xlink="http://www.w3.org/1999/xlink">
	<path id="Vector (Stroke)" d="M19.46 0.15C19.63 0.3 19.72 0.53 19.68 0.76L17.06 16.52C17.02 16.74 16.87 16.92 16.67 17.01C16.46 17.1 16.23 17.08 16.04 16.95L8.17 11.7C8.01 11.6 7.91 11.44 7.88 11.26C7.85 11.08 7.9 10.89 8.02 10.75L10.63 7.48L6.27 10.39C6.07 10.52 5.82 10.54 5.61 10.43L0.36 7.8C0.12 7.69 -0.02 7.44 0 7.18C0.01 6.91 0.18 6.69 0.43 6.6L18.81 0.03C19.03 -0.05 19.28 0 19.46 0.15ZM2.32 7.32L5.86 9.09L13.42 4.04C13.69 3.86 14.05 3.91 14.27 4.15C14.49 4.39 14.5 4.75 14.3 5L9.49 11.01L15.93 15.3L18.2 1.65L2.32 7.32Z" fill="#666666" fill-opacity="1.000000" fill-rule="evenodd"/>
</svg>
